<svg width="45" height="56" viewBox="0 0 45 56" fill="none" xmlns="http://www.w3.org/2000/svg">
<path fill-rule="evenodd" clip-rule="evenodd" d="M7.05351 12.0016C6.42827 9.31171 8.10177 6.62461 10.7916 5.99936C13.4815 5.37412 16.1686 7.04762 16.7938 9.73748L18.8542 18.6012C19.154 18.4641 19.472 18.3549 19.8056 18.2774C21.5367 17.875 23.2668 18.4247 24.4468 19.5848C24.9367 19.2558 25.4936 19.0085 26.1026 18.867C27.8337 18.4646 29.5638 19.0143 30.7438 20.1744C31.2337 19.8454 31.7906 19.5981 32.3996 19.4566C35.0894 18.8313 37.7765 20.5048 38.4018 23.1947L40.2131 30.9869C42.3387 40.1317 36.6482 49.2688 27.5035 51.3945C18.3587 53.5201 9.22162 47.8296 7.09596 38.6849L4.83187 28.9445C4.20662 26.2547 5.88012 23.5676 8.56998 22.9423C8.90356 22.8648 9.23709 22.8226 9.56666 22.8133L7.05351 12.0016ZM16.1571 33.4987C16.4071 34.5746 15.7377 35.6495 14.6618 35.8996C13.5859 36.1496 12.511 35.4802 12.2609 34.4043L10.6761 27.5861C10.551 27.048 10.0137 26.7134 9.47562 26.8385C8.93754 26.9635 8.60292 27.5008 8.728 28.0389L10.9921 37.7792C12.6176 44.7722 19.6048 49.1238 26.5978 47.4983C33.5908 45.8728 37.9424 38.8856 36.3169 31.8926L34.5057 24.1003C34.3806 23.5622 33.8433 23.2276 33.3052 23.3527C32.7671 23.4778 32.4325 24.0151 32.5576 24.5531C32.8077 25.629 32.1382 26.7039 31.0623 26.954C29.9865 27.2041 28.9115 26.5347 28.6615 25.4588L28.2086 23.5107C28.0836 22.9726 27.5463 22.638 27.0082 22.7631C26.4701 22.8882 26.1355 23.4255 26.2606 23.9635C26.5107 25.0394 25.8412 26.1143 24.7653 26.3644C23.6894 26.6145 22.6145 25.9451 22.3644 24.8692L21.9116 22.9211C21.7866 22.383 21.2493 22.0484 20.7112 22.1735C20.1731 22.2986 19.8385 22.8358 19.9636 23.3739C20.2137 24.4498 19.5442 25.5247 18.4683 25.7748C17.3924 26.0249 16.3175 25.3555 16.0674 24.2796L12.8977 10.6431C12.7726 10.105 12.2353 9.77042 11.6973 9.89549C11.1592 10.0206 10.8246 10.5579 10.9496 11.0959L16.1571 33.4987Z" fill="white"/>
<path fill-rule="evenodd" clip-rule="evenodd" d="M19.1947 11.2327C19.0696 10.6948 19.4044 10.1573 19.9423 10.0323L33.5787 6.86253C34.1167 6.73748 34.6541 7.07221 34.7792 7.61015C34.9042 8.14809 34.5695 8.68555 34.0316 8.81059L20.3951 11.9803C19.8572 12.1054 19.3197 11.7706 19.1947 11.2327Z" fill="#FE4F00"/>
<path fill-rule="evenodd" clip-rule="evenodd" d="M29.355 5.06504C29.647 4.59624 30.2637 4.45289 30.7325 4.74485L34.3338 6.98772C34.8026 7.27968 34.946 7.89641 34.654 8.36521L32.4112 11.9665C32.1192 12.4353 31.5025 12.5787 31.0337 12.2867C30.5649 11.9948 30.4215 11.378 30.7135 10.9092L32.4277 8.15675L29.6752 6.44253C29.2064 6.15057 29.0631 5.53384 29.355 5.06504Z" fill="#FE4F00"/>
<path fill-rule="evenodd" clip-rule="evenodd" d="M22.9403 6.5561C23.4091 6.84807 23.5524 7.46479 23.2604 7.93359L21.5462 10.6861L24.2987 12.4003C24.7675 12.6923 24.9109 13.309 24.6189 13.7778C24.3269 14.2466 23.7102 14.3899 23.2414 14.098L19.6401 11.8551C19.1713 11.5631 19.0279 10.9464 19.3199 10.4776L21.5628 6.87629C21.8547 6.40749 22.4714 6.26414 22.9403 6.5561Z" fill="#FE4F00"/>
</svg>
